<svg id="Layer_1" data-name="Layer 1" xmlns="http://www.w3.org/2000/svg" viewBox="0 0 1000 1000"><defs><style>.cls-1{fill:#7abcff;}.cls-2{fill:#ffc26b;}.cls-3{fill:#ffce89;}.cls-4{fill:#fff;}.cls-5{fill:#ede5dc;}.cls-6{fill:#e6e6e6;}.cls-7{fill:#f7f2eb;}.cls-8{fill:#f0f0f0;}.cls-9{fill:#233940;}.cls-10{fill:#474136;}</style></defs><title>Mail Delivery</title><path class="cls-1" d="M970,599.44c0-184.27-207.55-303.34-372.9-384.67C365.53,100.85,263.46,313.12,263.46,497.38c0,91.73,37.83,169.75,117.15,217.74,144,87.14,535.44,184.22,584.59-63.28A269.28,269.28,0,0,0,970,599.44Z"/><path class="cls-2" d="M705,746.23c-.07,2.26-1,5.06-3.22,5.31a4.57,4.57,0,0,1-3.09-1.18c-7.29-5.64-7.64-16.62-13.2-24a5.46,5.46,0,0,0-3.27-2.38c-3-.47-4.81,3.31-5.32,6.35-1,6.23,1.62,19.69-6.33,22.45-2.5-2.05-3.55-7.67-1.82-20.58,2-14.72-7.85-21.59-7.85-21.59-.51-2.56.47-5.51,2.46-8.61a37.6,37.6,0,0,0,7.05,1.41c6,.52,11.72-.79,15.9-5.09,1.7-1.75,3.18-4,5.55-4.58,3.56-.86,6.82,2.81,7.33,6.45.43,3-.31,6-.78,9-.1.64-.18,1.28-.25,1.92C697,723.1,705.32,734.24,705,746.23Z"/><path class="cls-3" d="M823.59,718.39c-11.45-16.73-15.86-8.81-14.54-.29,1.23,7.84,6,19.34.13,22.13-8.35-4-11.24-9.32-14.51-23.36-4.25-18.21-22.9-15-22.9-15a15.24,15.24,0,0,1,.75-11.93,41.87,41.87,0,0,0,5,.52c8,.35,16.76.38,26.51,0,3.15-.1,5.27-3.4,5.18-6.55,0-.2,0-.41,0-.62-.17-8.33,12.31-9.12,13-.81a47,47,0,0,0,2.37,11.3,52.06,52.06,0,0,0,7,13.46C851.93,735.84,835.05,735.12,823.59,718.39Z"/><path class="cls-4" d="M476.43,543.84a55.24,55.24,0,0,1-13.14,31.56l-7.64,8.95L368.09,686.92a55.67,55.67,0,0,1-75.31,8.71l-43.39-31.9L42.07,513.5a50.74,50.74,0,0,1-4-3.23A53.44,53.44,0,0,1,34.12,434l98.35-106.83a53.42,53.42,0,0,1,69.8-7.68l78,54.2,37.37,24.4L337.38,411l45.23,32.37,70.55,50.47A55.57,55.57,0,0,1,476.43,543.84Z"/><path class="cls-4" d="M809.76,601a193.34,193.34,0,0,0-27.59,3.33c-17.67,3.51-32,15.32-32,34.38,0,16.7,7.89,8.14,20.52,12.13,17.64,5.55,25.68,26.25,15.4,41.59-4.41,6.57-10.83,11.11-20.22,10.39-29.77-2.29-68-15.37-75.56-63.46S659.91,624.63,670,663.22c4.47,17,3.19,28.92.37,36.86-3.55,10-9.53,13.75-9.53,13.75l-10.52,1.29c-5.26-.69-11.68-3.13-19.57-8.07-20-12.52-33.69-30.72-42.54-46.06-1.44-.56-2.9-1.12-4.38-1.66A406.71,406.71,0,0,1,512.28,625c-8.79-5.33-17.13-11.33-25.36-17.51-10.4-7.77-20.61-15.83-31.27-23.15l7.64-8.95a55.67,55.67,0,0,0-10.13-81.54L346.62,418.29c-1.19-.85-2.42-1.65-3.66-2.39q-.78-.47-1.57-.9l-.43-.25q-.49-.27-1-.51c-.69-.38-1.39-.72-2.09-1l-1.33-.6c-.5-.22-1-.44-1.52-.64s-1-.42-1.53-.6l-1.06-.38-.78-.26-1-.34-.65-.2-1.15-.33c-.52-.16-1.06-.29-1.58-.42s-1.06-.25-1.58-.35-.77-.17-1.16-.24-1.06-.2-1.6-.27h-.08c-.65-.12-1.32-.21-2-.29s-1.24-.14-1.86-.18l-1.19-.09-.41,0-1.31-.07a53.43,53.43,0,0,0-7.51.29,51.89,51.89,0,0,0-12.74,3c-16.5,6.24-35.42,14.09-46.41,9.07V399.85c7.22-7.2,18.54-14.33,24.91-20.16a94.1,94.1,0,0,0,10.61-11.45,105.15,105.15,0,0,0,12-19.67c12.6-26.25,18.8-48.87,46.23-63.8A53.49,53.49,0,0,1,366.23,278c14.33-.71,28.22,4.91,40.42,15.4,11,9.46,19.53,21.31,28.21,32.91,29.22,39,74.76,73.94,123.28,91.22,1.23.43,2.46.86,3.69,1.27A386.12,386.12,0,0,0,598.95,405c52.09-22.45,109.71-61.09,156.8-127.47q5-7,9.83-13.27l3.22-4.08q6.79-8.48,13.31-15.48,1.16-1.26,2.32-2.47c.76-.8,1.52-1.57,2.29-2.34.24-.26.48-.51.75-.76q.75-.77,1.49-1.49,5.26-5.18,10.31-9.39c1-.81,1.91-1.58,2.85-2.33a115.17,115.17,0,0,1,13.82-9.54c.89-.5,1.77-1,2.66-1.48s1.74-.9,2.63-1.33l1.3-.61c1.27-.6,2.54-1.15,3.83-1.66s2.49-1,3.75-1.36c1.58-.51,3.15-1,4.68-1.3a41.82,41.82,0,0,1,5-.92,38.87,38.87,0,0,1,29.53,7.86,49.53,49.53,0,0,1,4.65,4.06l.88.89c.88.9,1.73,1.84,2.54,2.83l.82,1c.34.42.68.85,1,1.3s.65.86,1,1.31c19.78,28,20.39,82.43,20.39,82.43a280.62,280.62,0,0,1-7.42,62c-10.77,46.58-35.6,90.7-78,114.94,1.45,0,2.9,0,4.36,0a88.62,88.62,0,0,0,13.29-1.24,156.23,156.23,0,0,0,18.54-5.76l.12,0c7.67-3.27,15.11-7.21,22.64-10.45a17.8,17.8,0,0,1,2-.72l.35-.18a30.73,30.73,0,0,1,45,23.59c3.35,29.56,6.24,59.25,9.78,88.82a23.57,23.57,0,0,1-26.79,26.11l-.3,0c-11.63-1.59-23.3-2.87-35-3.75C849.78,601.26,829.55,599.93,809.76,601Z"/><path class="cls-5" d="M598.95,405a386.12,386.12,0,0,1-37.12,13.8c-1.23-.4-2.46-.84-3.69-1.27-48.52-17.28-94.06-52.21-123.28-91.22-8.67-11.59-17.25-23.45-28.21-32.91-12.19-10.49-26.09-16.11-40.42-15.4-5.74-35.18-3.89-67.11,21.16-68.52,21.37-1.2,36.34,21.48,47.06,36.69,19.84,28.12,37.84,57.31,61,83a294.13,294.13,0,0,0,58.33,50.16C568.36,388.74,583.3,397.93,598.95,405Z"/><path class="cls-6" d="M382.61,443.4c-11.61.69-26.68-6.52-38.09-13.67-18.62-11.68-59.91,5.93-78.4,6.07s-24.26-22-24.26-22c14.55,6.66,41-4,62.82-12.27a64.3,64.3,0,0,1,13-3.44L337.38,411Z"/><path class="cls-7" d="M826.11,504.76c-10.87,3.83-6.87,20.09,4.52,18.33,15.74-2.43,35.78-4.14,61.08-4.2,90.63-.21,45.21-39.54,14.26-33.67C889.29,488.39,855,494.57,826.11,504.76Z"/><path class="cls-5" d="M829.27,546.84c-11.44,1.44-11,18.17.53,18.87,15.9,1,35.84,3.55,60.57,8.87,88.61,19,52.58-29,21.08-29.87C894.49,544.26,859.7,543,829.27,546.84Z"/><path class="cls-8" d="M754.52,530.66a54.53,54.53,0,0,1,10.58-3.3Q759.78,529.28,754.52,530.66Z"/><path class="cls-8" d="M896.81,347.69c-13,78.18-56.43,136.47-103,165.58l.76-.76c18.32-18.38-4.5-48.5-27-35.55-.44.25-.89.52-1.33.8-18.45,11.66-52-1.92-68.13-9.7a22.37,22.37,0,0,0-20.33.38c-5.36,2.89-11.55,7-16,12.14-2.09-.14-4.36-.21-6.78-.21-25,0-37.54-11.41-43.4-25.67-4.53-11-9.5-25.37-3.48-36.82,6.12-11.63,20.76-17.65,33.22-13.8,6.92,2.15,13.11,6.14,19.77,9,19,8.19,37.68,2.63,56.26-3.68,24-8.13,48.52-18.8,68.36-34.88,5.89-4.78,31.31-27.46,35.43-33.84,14-21.72,29.36-43.2,37-68.17,1.73-5.68,3.59-11.46,7.09-16.26s9-8.56,14.92-8.48c19.39.25,10.85,29.14,7.68,39.88-8.11,27.52-23.07,51.94-42,73.32-5.57,6.28-11.45,12.61-17.57,18.93a5.38,5.38,0,0,0,6.1,8.64c20.54-9.17,36.09-28.46,48-46.47C887.1,335,898.21,339.26,896.81,347.69Z"/><path class="cls-5" d="M794.53,512.51l-.76.76a150.07,150.07,0,0,1-28.67,14.09,54.53,54.53,0,0,0-10.58,3.3A99,99,0,0,1,729.58,534c-68.09,0-12.25-49.81-67.8-53.44,4.42-5.17,10.61-9.25,16-12.14a22.37,22.37,0,0,1,20.33-.38c20.5,9.88,42.07,15.86,64.06,6.76,14-5.81,33.8,1.4,38.62,16.61C803.25,499.23,800.13,506.91,794.53,512.51Z"/><path class="cls-7" d="M729.58,534a99,99,0,0,0,24.94-3.36c-7.88,3.52-15.31,10.22-21,25.61-13.08,35.33-48.41,43.18-47.1,6.54s-18.32-35.33-28.79-60.19c-3.65-8.67-.93-16.08,4.16-22C717.33,484.21,661.49,534,729.58,534Z"/><path class="cls-7" d="M638.64,638.69a61.56,61.56,0,0,0,1,10.72c-6,3.35-8.71,9.17-8.16,16.76.88,12.21-12.1,7.85-12.1,7.85s-41.11-18.32-46.45-20-17.34-17.56-16.36-28.79c.82-9.45,2-22.23-18.4-38.52a140.92,140.92,0,0,0,4.92-34.48,46.18,46.18,0,0,0-.24-5.44,43.71,43.71,0,0,0-5.3-16.67,84.91,84.91,0,0,1,9.2,2.54,178.46,178.46,0,0,0,21.89,5.9,91.74,91.74,0,0,1,64.19,48.76,96.54,96.54,0,0,0,9,15C638.8,611.31,638.64,624,638.64,638.69Z"/><path class="cls-7" d="M558.14,417.57c-.41,6.93-7.05,52.87-46.15,83a120,120,0,0,1-38.72,19.7l-.14,0c-.43-1-.82-2.26-1.36-3.74a0,0,0,0,0,0,0c-1.82-5.08-5.26-12.74-17.08-21.54-.5-.38-1-.75-1.52-1.11L346.62,418.29c-1.19-.85-2.42-1.65-3.66-2.39q-.78-.47-1.57-.9l-.07,0c-.5-.27-1-.55-1.5-.8l-.29-.16a55.13,55.13,0,0,0-31-5.82c-9-14.39-17-28.07-23.63-39.93a105.15,105.15,0,0,0,12-19.67c12.6-26.25,18.8-48.87,46.23-63.8,22.12-12.05,44.83-7.43,63.52,8.66h0c11,9.46,19.52,21.3,28.2,32.89,24.51,32.72,60.49,62.57,100.08,81.53A236.94,236.94,0,0,0,558.14,417.57Z"/><path class="cls-5" d="M543.06,552.28a140.92,140.92,0,0,1-4.92,34.48,128.77,128.77,0,0,0-14-9.56c-32.61-19.56-27.9-55.9,13.37-47a43.71,43.71,0,0,1,5.3,16.67A46.18,46.18,0,0,1,543.06,552.28Z"/><path class="cls-3" d="M300.2,410c-1.32.42-2.62.91-3.88,1.37-5,1.8-10.05,3.52-15.06,5.28a118.66,118.66,0,0,1-13.39,4,42.08,42.08,0,0,1-12,1.2,16.68,16.68,0,0,1-9.32-3.24,12.32,12.32,0,0,1-1.13-1c-11.78-11.78,17-27.07,28.84-37.88,10.57-9.68,17.22-19.91,22.6-31.11l1.56.63a1.66,1.66,0,0,0,2.14,2.13c7.07-2.67,22.86-6.8,26.64,7.68,4.92,18.81,17.57,8.92,21.26,23.88a47.42,47.42,0,0,1,1.23,9.75,97.79,97.79,0,0,1-2.48,23,1.66,1.66,0,0,1-2.49,1c-2.8-1.67-7.87-4-8.72-4.31a53.11,53.11,0,0,0-12.74-3.62,50.61,50.61,0,0,0-13.27-.3c-2.29.25-4.64.4-6.9.79A22.78,22.78,0,0,0,300.2,410Z"/><path class="cls-8" d="M538.14,586.76c-4,14.85-9.92,29-16.6,43.75l-34.62-23c-10.4-7.77-20.61-15.83-31.27-23.15l7.64-8.95a55.24,55.24,0,0,0,13.14-31.56,55.91,55.91,0,0,0-3.15-23.6A120,120,0,0,0,512,500.54c9.52,9.83,19.53,18.64,25.54,29.64-41.27-8.87-46,27.46-13.37,47A128.77,128.77,0,0,1,538.14,586.76Z"/><path class="cls-5" d="M343.27,416.26s6.86-10.83,6.46-23.62c11.72,1.54,22.52,8.58,32.38,14.88,35.56,22.67,68.8,48.65,103.21,73q9.44,6.69,18.87,13.39a56.71,56.71,0,0,1,7.8,6.67,120,120,0,0,1-38.72,19.7c-.46-1.26-1-2.49-1.52-3.73A55.17,55.17,0,0,0,454.68,495c-.5-.38-1-.75-1.52-1.11L385.11,445.6c-7.47-5.3-14.31-10.1-21.89-15.27Z"/><path class="cls-2" d="M346.55,417.23a2.08,2.08,0,0,1-1.25.08,6.68,6.68,0,0,1-1.92-.81c-9.63-5.23-22.3-9.25-33.35-8-1,.11-3.11.2-5.21.46a1.37,1.37,0,0,1-1-2.45c7.24-5.4,19.79-10.57,26-12.45,4.22-1.27,16.43-1.83,19.87-1.37a91.36,91.36,0,0,1-1,15.7q-.42,2.94-1,5.85C347.51,415.39,347.51,416.8,346.55,417.23Z"/><path class="cls-5" d="M654,646.21c-6,0-10.78,1.16-14.41,3.19a61.56,61.56,0,0,1-1-10.72c0-14.73.16-27.39,3.18-36.35,2.94,3.83,5.94,6.63,8.92,7.89C669.17,618,669.82,646.11,654,646.21Z"/><path class="cls-8" d="M786.1,692.41c-4.41,6.57-10.83,11.11-20.22,10.39-29.77-2.29-68-15.37-75.56-63.46S659.91,624.63,670,663.22c4.47,17,3.19,28.92.37,36.86-3-1.19-25.79-22.73-30.8-50.67,3.62-2,8.43-3.15,14.41-3.19,15.81-.1,15.15-28.24-3.27-36-3-1.26-6-4.06-8.92-7.89,4.11-12.22,13.53-17.6,35.09-12.06,37.39,9.59,21.69,45.36,39.25,65.42C739.35,682.2,760.18,689.88,786.1,692.41Z"/><path class="cls-8" d="M455.65,585.66l-21.09,24.7a181.4,181.4,0,0,0-21.12-12.16,195.79,195.79,0,0,0-71.87-18.92L286,575.51A117,117,0,0,1,177.34,468.77L167,363.92l-4.38-51.85a53.25,53.25,0,0,1,19.16.14l12.61,129.07A117,117,0,0,0,303,548l55.57,3.78a195.79,195.79,0,0,1,71.87,18.92A189.64,189.64,0,0,1,455.65,585.66Z"/><path class="cls-4" d="M511.64,395.23c6.47,3.93,1,13.86-5.7,10.32a41.25,41.25,0,0,1-7-4.67c-23.45-19.3-26.27,1-54.3,2s-23.45-35-22.57-62.15A68,68,0,0,0,421,326.51,5.9,5.9,0,0,1,431.59,322l3.27,4.37C454.46,352.51,481.39,376.84,511.64,395.23Z"/><path class="cls-5" d="M347,313.79a86.14,86.14,0,0,0-7.55,35.48c.12,7.57,11.89,7.59,11.78,0a70.28,70.28,0,0,1,2.93-20.65c.64-2.23,1.36-4.45,2.16-6.63.26-.7,1.29-3.26.85-2.25,3-6.88-7.14-12.88-10.17-5.94Z"/><path class="cls-2" d="M331.35,611.78l14.27,11.16A11.45,11.45,0,0,1,348,638.39l-10.69,15.72A11.45,11.45,0,0,1,323,658l-19.82-9.44a11.45,11.45,0,0,1-6.52-10h0a11.42,11.42,0,0,1,2.49-7.47c3.82-4.78,11.21-13.6,17.81-19.06A11.5,11.5,0,0,1,331.35,611.78Z"/><path class="cls-9" d="M416.86,302.33a63.77,63.77,0,0,0-62.35-19.49,58.83,58.83,0,0,0-8.15,2.4,25.6,25.6,0,0,0-3.71,1.7l-3.68,2.2a71.38,71.38,0,0,0-13.22,10.73,75,75,0,0,0-10.29,13.62,164.23,164.23,0,0,0-8,15.42L300.23,345a145.18,145.18,0,0,1-8.24,16q-2.36,3.87-5.08,7.52C286,369.7,285,370.85,284,372l-2.93,3.48q-3.17,3.25-6.4,6.44c-2.3,2.08-4.66,3.93-7,5.74-4.71,3.61-9.44,7-13.77,10.77a56,56,0,0,0-6,5.85c-1.72,2-3.17,4.29-3.51,6.27a4.65,4.65,0,0,0,.27,2.68,7.92,7.92,0,0,0,1.84,2.48,11.85,11.85,0,0,0,6.35,2.86c5,.73,10.69-.3,16.15-1.76s11-3.47,16.42-5.55l8.26-3.14,4.46-1.45c1.5-.43,3.05-.69,4.58-1a54.59,54.59,0,0,1,18.66-.11,74.09,74.09,0,0,1,17.63,5.36c11.16,5,21.13,11.74,30.76,18.59s19.15,13.73,28.65,20.71,19,14,28.3,21.23q7,5.39,14,10.89c4.61,3.66,9.26,7.3,13.82,11.22a100.42,100.42,0,0,1,12.92,13,52.89,52.89,0,0,1,9.22,16.53,51.82,51.82,0,0,1,2.41,18.8,57.18,57.18,0,0,1-3.71,18.44,59.46,59.46,0,0,1-9.36,16.33c-1,1.26-2,2.34-2.91,3.46l-2.87,3.36-5.73,6.71L431.62,617l-46,53.6L374.16,684l-2.88,3.35L369.85,689c-.48.56-1.06,1.14-1.58,1.7-1.1,1.11-2.1,2.33-3.29,3.35l-3.55,3.09a59.9,59.9,0,0,1-34.7,12.74,58.66,58.66,0,0,1-35.4-10.29l-1.94-1.31L287.62,697l-3.54-2.63L277,689.12,262.82,678.6l-227.75-167a1.79,1.79,0,0,1,2.1-2.91L152,590.89l57.37,41.17c19.1,13.75,38.3,27.37,57.29,41.29l14.27,10.39,7.14,5.2,3.57,2.6,1.78,1.3,1.74,1.14,1.73,1.14.86.57.92.48c1.23.63,2.43,1.3,3.67,1.91l3.83,1.57c1.28.51,2.63.82,3.94,1.25a53.55,53.55,0,0,0,16.35,1.92,52.69,52.69,0,0,0,30.41-11.38l3.09-2.73c1-.9,1.9-2,2.86-3,.47-.52.94-1,1.41-1.54l1.43-1.68,2.85-3.37,11.42-13.46,45.73-53.8,22.92-26.85,5.73-6.71,2.87-3.36c1-1.12,1.94-2.26,2.77-3.29a51.58,51.58,0,0,0,8.13-14.17,49.32,49.32,0,0,0,3.22-16,44,44,0,0,0-2-16,45.68,45.68,0,0,0-7.82-14.15,92.87,92.87,0,0,0-11.86-12.07c-4.34-3.78-8.93-7.43-13.51-11.12s-9.18-7.31-13.8-10.92q-13.88-10.83-28-21.33t-28.43-20.85c-9.47-6.85-19.07-13.41-29.42-18.1a67.49,67.49,0,0,0-16-5,48.09,48.09,0,0,0-16.44,0c-1.34.3-2.71.51-4,.88L296,414.09l-8.26,3.08c-5.54,2.06-11.18,4.06-17,5.62a67.82,67.82,0,0,1-9.06,1.8,35,35,0,0,1-9.67,0,17.89,17.89,0,0,1-9.44-4.44,13.76,13.76,0,0,1-3.29-4.62,10.65,10.65,0,0,1-.59-6,15.31,15.31,0,0,1,2-5,27.8,27.8,0,0,1,2.9-4,61.6,61.6,0,0,1,6.66-6.45c4.62-3.92,9.45-7.37,14.1-10.89,2.32-1.76,4.6-3.53,6.68-5.38l6.08-6,2.78-3.26c.93-1.08,1.87-2.16,2.71-3.31q2.58-3.41,4.84-7.07a139.78,139.78,0,0,0,8-15.34l7.38-16a159.34,159.34,0,0,1,8.39-15.84,80,80,0,0,1,11.12-14.35,76.08,76.08,0,0,1,14.25-11.29l3.92-2.28a30,30,0,0,1,4.33-1.92,63.31,63.31,0,0,1,8.8-2.49,70.53,70.53,0,0,1,36,1.64,69.51,69.51,0,0,1,30,19.74,1.79,1.79,0,0,1-2.63,2.42Z"/><path class="cls-9" d="M583.89,448.88,628.5,412.5c14.92-12.09,30-24.06,45.54-35.41,7.79-5.65,15.76-11.15,23.87-16.33s16.3-10.32,24.82-15c4.26-2.33,8.59-4.54,13-6.58q3.31-1.54,6.7-2.94a67.89,67.89,0,0,1,7.06-2.56c4.84-1.4,10.23-2.37,15.81-1a18.35,18.35,0,0,1,7.65,3.93,19.75,19.75,0,0,1,5,6.9,23.29,23.29,0,0,1,1.93,8.07,30.25,30.25,0,0,1-.65,8,49.07,49.07,0,0,1-5.77,14.25,63.77,63.77,0,0,1-9.15,12.06,78,78,0,0,1-11.37,9.8,94.77,94.77,0,0,1-12.78,7.64,139.51,139.51,0,0,1-13.47,6,177.83,177.83,0,0,1-28.17,8.18,239,239,0,0,1-28.93,4.08c-2.43.17-4.85.37-7.28.49s-4.89.26-7.37.27a118.21,118.21,0,0,1-14.83-.84,138.08,138.08,0,0,1-28.77-6.76A202.46,202.46,0,0,1,584.5,403c-8.63-4.51-17-9.48-25.15-14.61-4.1-2.58-8.12-5.13-12.19-7.84s-8-5.49-11.92-8.42a296.66,296.66,0,0,1-42.91-39.33c-13.07-14.41-24.51-30.07-35.46-45.89s-21.41-31.89-32.5-47.43c-5.54-7.64-11.47-15-18.71-20.41a33.82,33.82,0,0,0-11.79-5.77,25.35,25.35,0,0,0-6.39-.77,19.89,19.89,0,0,0-6.3.8,17.66,17.66,0,0,0-9.84,7.15,34.34,34.34,0,0,0-4.89,12.26c-1.89,9-1.79,18.49-1.1,27.88a247.84,247.84,0,0,0,4,28.19c1.81,9.35,4,18.64,6.45,27.88,4.9,18.46,10.66,36.76,17.26,54.67v0a1.79,1.79,0,0,1-3.36,1.27q-10.44-27-18.27-54.79c-2.62-9.27-5-18.63-6.89-28.1A252.62,252.62,0,0,1,360.17,261c-.81-9.69-1.08-19.56.87-29.45a39.8,39.8,0,0,1,5.61-14.34,24.26,24.26,0,0,1,5.57-5.89,23.37,23.37,0,0,1,7.31-3.66,25.63,25.63,0,0,1,7.9-1.12,31.36,31.36,0,0,1,7.86.86,39.9,39.9,0,0,1,14,6.62c8.24,6,14.54,13.8,20.33,21.58,11.37,15.59,22.09,31.54,33.07,47.2s22.39,30.93,35.24,44.86a307.28,307.28,0,0,0,42,38.13c7.56,5.69,15.48,10.82,23.59,15.91s16.24,9.92,24.61,14.3c16.71,8.74,34.44,15.58,52.91,17.92a110.45,110.45,0,0,0,13.88.89c4.59,0,9.4-.32,14.09-.63a231.8,231.8,0,0,0,28.06-3.76,170.7,170.7,0,0,0,27.1-7.66,132.62,132.62,0,0,0,12.85-5.6,87.91,87.91,0,0,0,11.95-7,71.22,71.22,0,0,0,10.46-8.88,57,57,0,0,0,8.28-10.75,42.66,42.66,0,0,0,5.1-12.26,19.58,19.58,0,0,0-.75-12.14,13.4,13.4,0,0,0-3.31-4.71,12,12,0,0,0-5-2.62c-3.8-1-8.26-.41-12.57.81a62.08,62.08,0,0,0-6.49,2.28q-3.28,1.31-6.51,2.77c-4.31,1.94-8.54,4-12.73,6.27-8.37,4.46-16.52,9.41-24.61,14.51s-16,10.38-23.79,15.92c-15.58,11.07-30.77,22.75-45.83,34.61l-45.14,35.74a1.79,1.79,0,0,1-2.24-2.79Z"/><path class="cls-9" d="M179.21,280l11.66,110.88,2.86,27.73,1.43,13.86.71,6.93.82,6.77A113.36,113.36,0,0,0,216.94,496a115.76,115.76,0,0,0,18.3,19.89A113.55,113.55,0,0,0,246,524.07,108.74,108.74,0,0,0,257.64,531a113.09,113.09,0,0,0,38.61,11.65c2.25.27,4.45.43,6.76.59l6.94.45,27.75,1.79,13.87.89,7,.46,3.64.28,3.54.35a199.28,199.28,0,0,1,28,5,197.21,197.21,0,0,1,27,9A177.66,177.66,0,0,1,446,574.23c8.09,4.94,15.76,10.41,23.24,16,15,11.13,29.28,22.88,44.93,32.29a402.29,402.29,0,0,0,49,25.34q6.33,2.76,12.77,5.27,3.21,1.27,6.45,2.48c2.14.81,4.41,1.67,6.58,2.55a208.22,208.22,0,0,1,25.37,12.55c8.15,4.69,16,9.74,23.83,14.73,3.91,2.5,7.82,5,11.75,7.42l2.95,1.82c.93.57,1.88,1.11,2.84,1.61a44.58,44.58,0,0,0,6,2.58,35.81,35.81,0,0,0,6.24,1.54,23.63,23.63,0,0,0,6.18.14,15.65,15.65,0,0,0,5.61-1.71,12.72,12.72,0,0,0,2.37-1.63,22.55,22.55,0,0,0,2.19-2.24,15.32,15.32,0,0,1,3.16-2.82,8.09,8.09,0,0,1,2.41-1,7.36,7.36,0,0,1,2.78-.1,8.45,8.45,0,0,1,4.49,2.31,11.5,11.5,0,0,1,2.57,3.76,12.06,12.06,0,0,1,.9,4.33,22.13,22.13,0,0,1-.25,3.94c-.37,2.48-.88,4.65-1,6.7a25,25,0,0,0,.4,6.31,52.38,52.38,0,0,0,1.6,6.46c1.3,4.35,3,8.79,3.94,13.6a34.31,34.31,0,0,1,.75,7.44,10.94,10.94,0,0,1-.82,4.3,6.86,6.86,0,0,1-1.46,2.21,5.16,5.16,0,0,1-2.81,1.45,5.4,5.4,0,0,1-3-.39,9.21,9.21,0,0,1-2-1.2l-1.53-1.34-1.34-1.47a27.56,27.56,0,0,1-3.84-6.53c-1.94-4.47-3.15-8.93-5.22-12.71-1-1.81-2.44-3.9-3.33-4.1a1.19,1.19,0,0,0-1.25.32,5.67,5.67,0,0,0-1.35,2.11,10.38,10.38,0,0,0-.71,2.87c-.13,1-.17,2.15-.2,3.28-.06,2.28-.05,4.65-.24,7.06a22.89,22.89,0,0,1-1.62,7.4,10.88,10.88,0,0,1-2.37,3.46,11.61,11.61,0,0,1-1.78,1.25,15.26,15.26,0,0,1-2,.82l-.11,0a1.8,1.8,0,0,1-1-3.44l.07,0c3.69-.93,4.71-5.4,5-9.77.14-2.22.1-4.5.12-6.86,0-1.19,0-2.38.17-3.67a14.4,14.4,0,0,1,.9-3.89,9.58,9.58,0,0,1,2.38-3.7,5.33,5.33,0,0,1,5.2-1.24,7.84,7.84,0,0,1,3.74,2.82c.4.53.75,1,1.12,1.57s.66,1.07,1,1.61c2.45,4.36,3.75,8.94,5.59,13a23.12,23.12,0,0,0,3.27,5.41l1,1.09,1.11.94a4.74,4.74,0,0,0,1,.58c.26.1.38.1.42.08a.42.42,0,0,0,.22-.14,2.24,2.24,0,0,0,.42-.7,6.3,6.3,0,0,0,.4-2.51,29.62,29.62,0,0,0-.73-6.38c-.92-4.3-2.56-8.58-4-13.11a57.26,57.26,0,0,1-1.82-7,30.1,30.1,0,0,1-.55-7.55c.13-2.59.68-5,1-7.09a10.52,10.52,0,0,0-.35-5.45,6.16,6.16,0,0,0-1.35-1.94,3.06,3.06,0,0,0-1.59-.85,2,2,0,0,0-1.45.38,10.5,10.5,0,0,0-2,1.87,27.93,27.93,0,0,1-2.65,2.76,18.33,18.33,0,0,1-3.33,2.35,21.27,21.27,0,0,1-7.6,2.44,29.3,29.3,0,0,1-7.71-.08,41.56,41.56,0,0,1-7.29-1.71,50.46,50.46,0,0,1-6.83-2.84c-1.1-.56-2.18-1.15-3.24-1.78l-3-1.81c-4-2.41-8-4.87-11.9-7.33-7.89-4.91-15.73-9.82-23.74-14.3a201.56,201.56,0,0,0-24.69-11.87c-2.13-.84-4.22-1.6-6.44-2.41s-4.4-1.61-6.59-2.45q-6.56-2.51-13-5.25A409.54,409.54,0,0,1,510.28,629c-16.31-9.64-30.95-21.43-45.73-32.47-7.4-5.52-14.88-10.85-22.65-15.6a169.78,169.78,0,0,0-24.26-12.35A196,196,0,0,0,364.89,555l-3.39-.36-3.31-.28-6.91-.51-13.93-1-27.86-2-7-.5c-2.33-.18-4.76-.37-7.12-.68a120.27,120.27,0,0,1-83.69-50A119.49,119.49,0,0,1,190.93,447l-.78-7.07-.64-6.94-1.28-13.87-2.56-27.75-10-111a1.79,1.79,0,0,1,3.56-.35Z"/><path class="cls-9" d="M740.75,480.81a58.28,58.28,0,0,1,27.45-9.36,66.27,66.27,0,0,1,14.71.5c1.22.19,2.43.41,3.64.64s2.41.52,3.61.85c2.4.65,4.71,1.43,7,2.25,9,3.3,17.3,7.08,25.72,6.75a48.79,48.79,0,0,0,12.8-2.09,124.72,124.72,0,0,0,12.81-4.51l.2-.08.09,0,.12,0-.29.11c5.41-2.17,10.79-4.72,16.3-7.18l4.18-1.8,2.11-.87c.75-.29,1.66-.58,2.48-.85a20.39,20.39,0,0,1,10.52,0,18.23,18.23,0,0,1,2.46.82c.78.36,1.57.7,2.33,1.08l2.15,1.35c.71.46,1.32,1,2,1.54a28.31,28.31,0,0,1,6.26,7.61,29,29,0,0,1,3.19,9.22,27.37,27.37,0,0,1-.43,9.68,1.79,1.79,0,0,1-3.53-.61v-.11a24.72,24.72,0,0,0-.29-8.17,26.13,26.13,0,0,0-3.19-7.46,23.06,23.06,0,0,0-5.46-5.84,17.39,17.39,0,0,0-6.94-3.25,14.12,14.12,0,0,0-7.2.3c-.58.24-1.1.41-1.73.69l-2,.94-4,2c-5.31,2.64-10.65,5.44-16.24,8l-.14.06-.15.05-.12,0,.29-.11A101.19,101.19,0,0,1,837.83,488a53.76,53.76,0,0,1-15,2.19,39.66,39.66,0,0,1-7.71-.79,56.16,56.16,0,0,1-7.27-2c-4.67-1.6-9-3.62-13.23-5.35a68.88,68.88,0,0,0-12.82-4,60.39,60.39,0,0,0-13.35-1.15,56.86,56.86,0,0,0-25.89,6.94h0a1.79,1.79,0,0,1-1.85-3.06Z"/><path class="cls-9" d="M489.56,414.63a84.47,84.47,0,0,0,13,4.29A97.81,97.81,0,0,0,516.21,421a119.4,119.4,0,0,0,13.81.15q6.91-.38,13.78-1.43a174.78,174.78,0,0,0,27-6.54,186.23,186.23,0,0,0,25.65-10.44h0l.15-.07a369,369,0,0,0,82.65-50,379.09,379.09,0,0,0,35.67-32.62A390.85,390.85,0,0,0,746,283c2.37-3.28,4.78-6.45,7.13-9.81s4.75-6.66,7.19-10c4.87-6.6,10-13.07,15.36-19.32a189.67,189.67,0,0,1,17.42-17.77,110,110,0,0,1,20.59-14.6,64.69,64.69,0,0,1,24.57-7.77c1.09-.07,2.18-.19,3.28-.22l3.29,0c1.1,0,2.2.15,3.3.23.55,0,1.1.07,1.65.14l1.64.27c1.09.21,2.2.31,3.27.62l3.23.87a46.17,46.17,0,0,1,6.2,2.52A44.93,44.93,0,0,1,875,215.77a61.29,61.29,0,0,1,8.51,9.9,87.41,87.41,0,0,1,6.33,11.16,118.35,118.35,0,0,1,4.66,11.77c5.26,16,7.46,32.54,8.24,49a226,226,0,0,1-.25,24.79c-.19,4.13-.66,8.24-1.06,12.35l-.81,6.14c-.25,2.05-.58,4.09-.94,6.12-5.38,32.62-17.58,63.84-34.3,92.11a306.25,306.25,0,0,1-28.17,40.37c-10.6,12.57-22.45,24.26-36,33.73a139.62,139.62,0,0,1-21.44,12.49,109.33,109.33,0,0,1-23.59,7.82,106.94,106.94,0,0,1-24.72,2.33,110.13,110.13,0,0,1-24.56-3.39,1.79,1.79,0,0,1,.86-3.49h0a106.33,106.33,0,0,0,23.74,2.88,102.75,102.75,0,0,0,23.72-2.63,107.18,107.18,0,0,0,22.52-7.85,134.79,134.79,0,0,0,20.53-12.28c13-9.31,24.43-20.8,34.64-33.2A300.44,300.44,0,0,0,860.08,436c16.09-27.88,27.52-58.47,32.52-90.15.33-2,.64-4,.86-5.95l.73-6c.34-4,.77-8,.92-12a218.81,218.81,0,0,0,0-24,212,212,0,0,0-2.56-23.82,154.85,154.85,0,0,0-5.53-23.1,110.6,110.6,0,0,0-4.31-10.91,79.79,79.79,0,0,0-5.69-10.05c-4.35-6.25-9.8-11.66-16.43-14.84a38.33,38.33,0,0,0-5.09-2.08l-2.66-.72c-.88-.27-1.82-.33-2.72-.52l-1.37-.23c-.46-.06-.93-.07-1.39-.11-.93-.06-1.86-.15-2.79-.2l-2.81,0c-.94,0-1.87.13-2.81.19a58.61,58.61,0,0,0-21.67,6.82,102.42,102.42,0,0,0-19.22,13.44,182.22,182.22,0,0,0-16.83,16.94c-5.29,6-10.3,12.31-15.14,18.77q-3.63,4.84-7.17,9.78c-2.33,3.29-4.86,6.59-7.29,9.88a397.63,397.63,0,0,1-31.92,37.46,369.46,369.46,0,0,1-36.61,32.87,374.78,374.78,0,0,1-84.48,49.84l.17-.08a185.7,185.7,0,0,1-26.61,10.41,179.4,179.4,0,0,1-27.79,6.3q-7.08,1-14.24,1.26a123.55,123.55,0,0,1-14.32-.37,101.63,101.63,0,0,1-14.17-2.36,88.21,88.21,0,0,1-13.61-4.7,1.79,1.79,0,0,1,1.41-3.29Z"/><path class="cls-9" d="M805.84,739c2-.35,2.73-1.45,3-3.54a24.33,24.33,0,0,0-.78-6.8c-.53-2.37-1.19-4.75-1.77-7.24-.28-1.26-.56-2.49-.75-3.88a19.36,19.36,0,0,1-.07-4.22,10.3,10.3,0,0,1,1.46-4.54,5.6,5.6,0,0,1,2.34-2,5.45,5.45,0,0,1,3.14-.37,10.11,10.11,0,0,1,4.35,2.08,23.81,23.81,0,0,1,3,2.8,57.73,57.73,0,0,1,4.85,6.09,39.67,39.67,0,0,0,4.57,5.29,22.71,22.71,0,0,0,5.33,4,6.58,6.58,0,0,0,2.4.74c.2,0,.31-.06.14,0s-.13.25-.11,0a5.92,5.92,0,0,0-.23-2.33,19.85,19.85,0,0,0-1.09-3.09,52.35,52.35,0,0,0-3.32-6.22c-1.26-2-2.62-4.05-4-6A63.71,63.71,0,0,1,824,703.1a51.94,51.94,0,0,1-5.58-14.83q-.41-2-.65-3.94l-.12-1a4.83,4.83,0,0,0-.11-.82c0-.17-.07-.34-.1-.52s-.13-.28-.17-.43c-.07-.32-.3-.47-.41-.72s-.37-.37-.65-.49a3.2,3.2,0,0,0-1.81-.43,3.8,3.8,0,0,0-1.86.54,3,3,0,0,0-1.06,1.24c-.06.12-.06.29-.11.42a1,1,0,0,0-.08.47,10.68,10.68,0,0,0,0,1.39,10.57,10.57,0,0,1-1.37,5.32,9,9,0,0,1-4.4,4,8.19,8.19,0,0,1-1.58.46,11.83,11.83,0,0,1-1.41.13l-1.88.07q-3.77.14-7.54.21c-5,.09-10.07.07-15.12-.08l-1.9-.06-2-.19c-1.34-.16-2.71-.21-4-.47l-4-.84c-1.3-.38-2.58-.81-3.87-1.22a51.43,51.43,0,0,1-14.08-7.78,50.46,50.46,0,0,1-17.69-26.47,44.9,44.9,0,0,1-1.26-16.24,41.67,41.67,0,0,1,1.56-8,49.39,49.39,0,0,1,3.05-7.59,53.93,53.93,0,0,1,4.29-6.9,58.63,58.63,0,0,1,5.26-6.07,70.91,70.91,0,0,1,12.43-9.73,100.29,100.29,0,0,1,28.57-11.81,108.22,108.22,0,0,1,15.17-2.62c5.07-.55,10.16-.85,15.22-.91,10.13-.15,20.18.44,30.14,1.17l14.9,1.12c4.9.33,10,.65,15,1.29,20.08,2.46,39.52,8.06,58.23,15.17a1.79,1.79,0,0,1-1.22,3.37h0c-18.72-6.46-38-11.33-57.58-13.37-4.9-.52-9.74-.72-14.78-.95l-14.93-.8c-9.92-.52-19.8-.88-29.6-.52q-7.35.25-14.58,1.19a108.49,108.49,0,0,0-14.22,2.72,93.09,93.09,0,0,0-26.28,11.33c-8,5.11-14.87,11.8-19,19.89a41.59,41.59,0,0,0-2.48,6.27,33.68,33.68,0,0,0-1.23,6.61,37.07,37.07,0,0,0,1,13.39,43.79,43.79,0,0,0,14.78,22.49,43.85,43.85,0,0,0,11.86,6.77L768,685.4l3.34.75c1.11.24,2.26.28,3.38.43l1.7.19,1.84.09c4.91.22,9.84.3,14.77.28q3.7,0,7.4-.11l1.86,0c.42,0,.34,0,.45,0a1.37,1.37,0,0,0,.21-.06,2.11,2.11,0,0,0,1-1,3.84,3.84,0,0,0,.52-1.82,19.06,19.06,0,0,1,.11-2.34,5.38,5.38,0,0,1,.27-1.35,11.22,11.22,0,0,1,.45-1.36,9.73,9.73,0,0,1,3.77-4.3,10.48,10.48,0,0,1,5.24-1.48,9.82,9.82,0,0,1,7.56,3.26,9.63,9.63,0,0,1,1.48,2.48,9.39,9.39,0,0,1,.69,2.65,9.73,9.73,0,0,1,.12,1l.08.86c.12,1.15.29,2.3.5,3.44a45.71,45.71,0,0,0,4.65,13.13,57.52,57.52,0,0,0,3.76,6.05c1.45,2.09,2.84,4.24,4.15,6.47a57.81,57.81,0,0,1,3.56,7,25.24,25.24,0,0,1,1.3,4,10.59,10.59,0,0,1,.11,5.06,5.33,5.33,0,0,1-2.09,3.06,5.75,5.75,0,0,1-3.41.94,11.55,11.55,0,0,1-4.7-1.4,27.74,27.74,0,0,1-6.55-5,42.35,42.35,0,0,1-5-6.13,53.19,53.19,0,0,0-4.29-5.72,19.23,19.23,0,0,0-2.38-2.32,5.94,5.94,0,0,0-2.25-1.26,1,1,0,0,0-.51,0,1,1,0,0,0-.44.39,6.08,6.08,0,0,0-.82,2.51,15.08,15.08,0,0,0,0,3.23c.11,1.08.34,2.29.57,3.47.48,2.38,1.09,4.81,1.58,7.32a27.57,27.57,0,0,1,.64,8,8,8,0,0,1-1.81,4.42,6.91,6.91,0,0,1-4.36,2.24h0a1.79,1.79,0,0,1-.53-3.54Z"/><path class="cls-9" d="M795.15,669.67a44.38,44.38,0,0,1-.78,11.49,37.23,37.23,0,0,1-3.92,11,28.11,28.11,0,0,1-8,9.06,26.34,26.34,0,0,1-5.32,3l-.7.3-.35.15-.44.14a13.86,13.86,0,0,1-1.73.45l-1.6.26-1.52.13a56.74,56.74,0,0,1-11.62-.57A96.94,96.94,0,0,1,748,702.91a108,108,0,0,1-10.83-3.47c-1.79-.63-3.52-1.41-5.28-2.15s-3.44-1.62-5.14-2.48c-13.5-7-25.43-17.74-32.83-31.25a70.43,70.43,0,0,1-7.68-21.46,84,84,0,0,1-1-22.47,1.8,1.8,0,0,1,3.59.13v0A89.15,89.15,0,0,0,691.42,641,67.69,67.69,0,0,0,713.15,676a95.16,95.16,0,0,0,8.34,6.32l2.18,1.46,2.25,1.35c1.47,1,3,1.75,4.56,2.63A106.92,106.92,0,0,0,750,695.85a99.32,99.32,0,0,0,10.27,2.47,54.84,54.84,0,0,0,10.25,1l1.22,0,1.12-.12a7.82,7.82,0,0,0,.94-.18l.22,0,.28-.11.57-.21a20.38,20.38,0,0,0,4.32-2.16,22.56,22.56,0,0,0,6.8-7c3.64-5.59,5.35-12.79,5.61-19.64v-.14a1.79,1.79,0,0,1,3.57,0Z"/><path class="cls-9" d="M674.12,689.78a41.91,41.91,0,0,1-1.36,10.14,31.45,31.45,0,0,1-4.16,9.64,20.15,20.15,0,0,1-8.48,7.2,22.45,22.45,0,0,1-11,1.6,38.41,38.41,0,0,1-10.3-2.54,67.51,67.51,0,0,1-9.24-4.43,108.32,108.32,0,0,1-16.44-11.62c-1.25-1.12-2.52-2.22-3.74-3.37s-2.41-2.33-3.54-3.56c-2.34-2.4-4.49-5-6.58-7.55a144.39,144.39,0,0,1-11.33-16.37,156.67,156.67,0,0,1-9.08-17.6,131.34,131.34,0,0,1-6.69-18.64,1.79,1.79,0,0,1,3.4-1.12l0,.08a174.78,174.78,0,0,0,17.84,33.76,154.43,154.43,0,0,0,11.61,15c1,1.18,2.09,2.36,3.19,3.49s2.16,2.29,3.27,3.4c2.21,2.23,4.51,4.36,6.82,6.49a116.11,116.11,0,0,0,15,11.28c5.25,3.25,10.88,6,16.53,6.91a16.39,16.39,0,0,0,8.1-.61,14.6,14.6,0,0,0,6.45-4.88c3.53-4.52,5.42-10.83,6.17-16.84v-.12a1.79,1.79,0,0,1,3.56.24Z"/><path class="cls-4" d="M253,416c16.4.07,33.31-6.61,47-15.13,3.27-2,.26-7.23-3-5.18-12.79,8-28.59,14.38-44,14.31-3.86,0-3.87,6,0,6Z"/><path class="cls-9" d="M352.37,317.49c-.44,2.69-1,5.42-1.44,8.09s-.92,5.33-1.33,8-1.38,5.13-2,7.74-1.21,5.21-1.81,7.92l0,.12a1.83,1.83,0,0,1-3.56,0,31.81,31.81,0,0,1-.81-4.36,35.8,35.8,0,0,1-.32-4.41,34,34,0,0,1,.75-8.74,59.15,59.15,0,0,1,3-8.18,44.71,44.71,0,0,1,4.3-7.61,1.82,1.82,0,0,1,3.28,1.35Z"/><path class="cls-10" d="M283.34,618.2a18.72,18.72,0,0,0,5.2,6.16,22.11,22.11,0,0,0,7.47,3.18c5.57,1.48,11.48,2.36,17.38,3.71s11.94,3.06,17.54,6.44a31.66,31.66,0,0,1,4,2.92,26.69,26.69,0,0,1,3.46,3.72,23.6,23.6,0,0,1,2.62,4.41c.1.21.17.34.28.63a10.26,10.26,0,0,1,.33,1.21,6.63,6.63,0,0,1,0,2.12,10.38,10.38,0,0,1-1.07,3.07,31.17,31.17,0,0,1-6.36,7.72l-.9.81a9.3,9.3,0,0,1-1.24,1,6.7,6.7,0,0,1-2.06.9,8.26,8.26,0,0,1-1.92.2,14.89,14.89,0,0,1-5.61-1.37c-1.56-.66-3-1.4-4.3-2.12l-1.9-1-2-1q-4-2.1-8-4.41t-7.75-4.79q-1.91-1.25-3.78-2.54a13.53,13.53,0,0,1-4.22-4.38,9.72,9.72,0,0,1-1.24-3.41,9.2,9.2,0,0,1,.23-3.85,14.13,14.13,0,0,1,3.06-5.3c1.14-1.3,2.09-2.28,3.12-3.4l3-3.27q6.05-6.57,12.21-13l3.12-3.29a17.21,17.21,0,0,1,4.52-3.5,9.93,9.93,0,0,1,3.46-1,8.75,8.75,0,0,1,1.75,0,9.07,9.07,0,0,1,1.61.19,15.89,15.89,0,0,1,2.78.84c.42.17.86.34,1.27.52l1.15.6a48.54,48.54,0,0,1,7.94,5.53c2.39,2,4.63,4,6.82,6.08l3.25,3,1.59,1.43,1.73,1.44a15.13,15.13,0,0,1,2,2.08,11.54,11.54,0,0,1,1.59,2.83,9.34,9.34,0,0,1,0,6.72,10.64,10.64,0,0,1-4,4.92,10.35,10.35,0,0,1-6.09,1.77,14.24,14.24,0,0,1-1.65-.2c-.53-.15-1.07-.32-1.59-.5a10.16,10.16,0,0,1-2.69-1.73,22.14,22.14,0,0,1-1.77-1.73c-.49-.52-1-1-1.51-1.52a50.31,50.31,0,0,0-13.73-9.75,53.3,53.3,0,0,0-8-3c-1.38-.4-2.77-.76-4.19-1.07l-2.21-.52c-.77-.17-1.54-.39-2.29-.64a31.77,31.77,0,0,1-8.59-4.14,23.89,23.89,0,0,1-6.8-6.93,1.79,1.79,0,0,1,3-1.94l.06.09a16.37,16.37,0,0,0,2.65,2.94,24.4,24.4,0,0,0,3.3,2.46,27.5,27.5,0,0,0,7.62,3.2c.67.18,1.34.34,2,.45l2.16.4c1.51.26,3,.59,4.51,1a58.39,58.39,0,0,1,8.86,2.91,54.28,54.28,0,0,1,15.67,10.22c.58.52,1.15,1,1.69,1.59a15.22,15.22,0,0,0,1.46,1.35,3.12,3.12,0,0,0,2.17.84,4.34,4.34,0,0,0,3.79-2.73,2.67,2.67,0,0,0-.12-2c-.07-.34-.42-.66-.62-1a8.32,8.32,0,0,0-1.13-1.11l-1.75-1.36c-.59-.5-1.22-1-1.78-1.5l-3.39-3c-2.22-2-4.42-3.87-6.66-5.63a41.57,41.57,0,0,0-6.8-4.51l-.84-.41c-.28-.12-.54-.2-.81-.3a8.25,8.25,0,0,0-1.5-.42c-.26-.09-.4,0-.61,0a2.17,2.17,0,0,0-.48,0,2.27,2.27,0,0,0-.77.29,11.33,11.33,0,0,0-2.42,2.05l-3,3.22q-6.05,6.57-12.2,13l-3.06,3.25c-1,1.06-2.12,2.23-2.95,3.15a7.36,7.36,0,0,0-1.53,2.28,1.49,1.49,0,0,0,.2,1.33,5.92,5.92,0,0,0,1.92,2q1.77,1.28,3.58,2.52,3.61,2.47,7.34,4.77t7.56,4.41l1.93,1,2,1.13c1.27.73,2.49,1.39,3.66,1.92a9,9,0,0,0,3,.9c.34,0,.35,0,.27,0s.31-.22.52-.4l.78-.67a27.42,27.42,0,0,0,5.18-5.82,4.65,4.65,0,0,0,.47-1.1c0-.06,0-.12,0-.1s0,0,0,0a.13.13,0,0,0,0,.13c0-.06-.11-.27-.17-.39a17.41,17.41,0,0,0-1.82-3.32,20.65,20.65,0,0,0-2.52-2.9,25.82,25.82,0,0,0-3.12-2.44c-4.53-3-10-4.79-15.67-6.28s-11.5-2.68-17.38-4.51a26.25,26.25,0,0,1-8.67-4.22,18.9,18.9,0,0,1-3.44-3.6,31.85,31.85,0,0,1-2.45-4.06,1.79,1.79,0,0,1,3.13-1.74Z"/></svg>